<?xml version="1.0" encoding="UTF-8"?>
<svg xmlns="http://www.w3.org/2000/svg" xmlns:xlink="http://www.w3.org/1999/xlink" width="341.662pt" height="253.621pt" viewBox="0 0 341.662 253.621">
<defs>
<g>
<g id="glyph-0-0">
<path d="M -1.65625 -7.09375 C -1.296875 -7.453125 -0.765625 -7.734375 -0.1875 -7.15625 C -0.09375 -7.0625 -0.015625 -6.953125 0.078125 -6.828125 C 0.796875 -5.765625 0.453125 -5.015625 -0.203125 -4.359375 L -0.546875 -4.015625 L -1.96875 -6.125 C -2.140625 -6.359375 -2.140625 -6.609375 -1.65625 -7.09375 Z M -1.859375 -7.359375 C -2.03125 -7.1875 -2.375 -6.71875 -2.640625 -6.453125 C -2.921875 -6.171875 -3.1875 -5.90625 -3.53125 -5.59375 L -3.515625 -5.578125 L -3.390625 -5.390625 C -3.390625 -5.359375 -3.359375 -5.359375 -3.328125 -5.390625 L -3.046875 -5.640625 C -2.9375 -5.71875 -2.75 -5.8125 -2.578125 -5.640625 C -2.5625 -5.625 -2.53125 -5.59375 -2.515625 -5.578125 L 0.328125 -1.359375 C 0.5 -1.125 0.484375 -0.921875 0.203125 -0.609375 L 0.046875 -0.421875 C 0.015625 -0.390625 0 -0.34375 0.046875 -0.296875 L 0.140625 -0.140625 L 0.171875 -0.140625 C 0.484375 -0.453125 0.75 -0.75 1.015625 -1.015625 C 1.28125 -1.28125 1.578125 -1.546875 1.890625 -1.859375 L 1.90625 -1.90625 L 1.796875 -2.046875 C 1.75 -2.09375 1.71875 -2.09375 1.6875 -2.0625 L 1.5 -1.90625 C 1.25 -1.6875 1.109375 -1.640625 0.953125 -1.796875 C 0.9375 -1.8125 0.90625 -1.84375 0.875 -1.90625 L -0.375 -3.75 C 0.1875 -4.3125 0.4375 -4.3125 0.65625 -4.21875 L 2.375 -3.46875 C 2.84375 -3.28125 3.359375 -3.234375 3.765625 -3.640625 C 3.859375 -3.734375 3.984375 -3.859375 4.015625 -3.984375 L 3.875 -4.15625 C 3.578125 -3.859375 3.203125 -3.984375 2.78125 -4.1875 L 0.734375 -5.078125 C 0.953125 -5.484375 1.265625 -6.546875 0.671875 -7.421875 C 0.59375 -7.53125 0.515625 -7.640625 0.4375 -7.71875 C 0.203125 -7.953125 -0.078125 -8.078125 -0.390625 -8.109375 C -0.984375 -8.171875 -1.421875 -7.796875 -1.859375 -7.359375 Z M -1.859375 -7.359375 "/>
</g>
<g id="glyph-1-0">
<path d="M 0.828125 -2.015625 L -0.890625 -3.734375 C -1.1875 -4.03125 -1.484375 -4.328125 -1.53125 -4.40625 C -1.5625 -4.4375 -1.578125 -4.421875 -1.59375 -4.40625 C -1.703125 -3.953125 -1.828125 -3.578125 -2.078125 -2.953125 C -2 -2.875 -1.921875 -2.859375 -1.859375 -2.890625 C -1.734375 -3.203125 -1.65625 -3.34375 -1.5625 -3.4375 C -1.484375 -3.515625 -1.34375 -3.40625 -1.171875 -3.234375 L 0.4375 -1.625 C 0.84375 -1.21875 0.734375 -1.078125 0.40625 -0.71875 C 0.40625 -0.65625 0.515625 -0.546875 0.578125 -0.546875 C 0.8125 -0.8125 0.96875 -0.96875 1.25 -1.25 C 1.484375 -1.484375 1.609375 -1.609375 1.859375 -1.828125 C 1.859375 -1.890625 1.75 -2 1.6875 -2 C 1.328125 -1.671875 1.234375 -1.609375 0.828125 -2.015625 Z M 0.828125 -2.015625 "/>
</g>
<g id="glyph-1-1">
<path d="M -1.15625 -3.84375 L 0.265625 -2.421875 L -0.6875 -1.46875 C -0.84375 -2.125 -1.03125 -3.03125 -1.15625 -3.84375 Z M 1.046875 -3.203125 L 0.640625 -2.796875 L -0.796875 -4.234375 C -1.046875 -4.484375 -1.25 -4.6875 -1.28125 -4.71875 L -1.453125 -4.546875 C -1.484375 -4.515625 -1.484375 -4.453125 -1.484375 -4.421875 C -1.40625 -3.71875 -1.171875 -2.328125 -0.921875 -1.171875 C -0.828125 -1.140625 -0.65625 -1.03125 -0.515625 -1.171875 L 0.5 -2.1875 L 0.953125 -1.734375 C 1.171875 -1.515625 0.984375 -1.328125 0.78125 -1.09375 C 0.78125 -1.03125 0.890625 -0.921875 0.953125 -0.921875 C 1.09375 -1.09375 1.296875 -1.296875 1.515625 -1.515625 C 1.71875 -1.71875 1.90625 -1.90625 2.078125 -2.046875 C 2.078125 -2.109375 1.96875 -2.21875 1.90625 -2.21875 C 1.640625 -1.984375 1.546875 -1.890625 1.328125 -2.109375 L 0.875 -2.5625 L 1.21875 -2.90625 C 1.28125 -2.96875 1.25 -3.125 1.1875 -3.1875 C 1.140625 -3.234375 1.09375 -3.25 1.046875 -3.203125 Z M 1.046875 -3.203125 "/>
</g>
<g id="glyph-2-0">
<path d="M 7.09375 -1.65625 C 7.453125 -1.296875 7.734375 -0.765625 7.15625 -0.1875 C 7.0625 -0.09375 6.953125 -0.015625 6.828125 0.078125 C 5.765625 0.796875 5.015625 0.453125 4.359375 -0.203125 L 4.015625 -0.546875 L 6.125 -1.96875 C 6.359375 -2.140625 6.609375 -2.140625 7.09375 -1.65625 Z M 7.359375 -1.859375 C 7.1875 -2.03125 6.71875 -2.375 6.453125 -2.640625 C 6.171875 -2.921875 5.90625 -3.1875 5.59375 -3.53125 L 5.578125 -3.515625 L 5.390625 -3.390625 C 5.359375 -3.390625 5.359375 -3.359375 5.390625 -3.328125 L 5.640625 -3.046875 C 5.71875 -2.9375 5.8125 -2.75 5.640625 -2.578125 C 5.625 -2.5625 5.59375 -2.53125 5.578125 -2.515625 L 1.359375 0.328125 C 1.125 0.5 0.921875 0.484375 0.609375 0.203125 L 0.421875 0.046875 C 0.390625 0.015625 0.34375 0 0.296875 0.046875 L 0.140625 0.140625 L 0.140625 0.171875 C 0.453125 0.484375 0.75 0.75 1.015625 1.015625 C 1.28125 1.28125 1.546875 1.578125 1.859375 1.890625 L 1.90625 1.90625 L 2.046875 1.796875 C 2.09375 1.75 2.09375 1.71875 2.0625 1.6875 L 1.90625 1.5 C 1.6875 1.25 1.640625 1.109375 1.796875 0.953125 C 1.8125 0.9375 1.84375 0.90625 1.90625 0.875 L 3.75 -0.375 C 4.3125 0.1875 4.3125 0.4375 4.21875 0.65625 L 3.46875 2.375 C 3.28125 2.84375 3.234375 3.359375 3.640625 3.765625 C 3.734375 3.859375 3.859375 3.984375 3.984375 4.015625 L 4.15625 3.875 C 3.859375 3.578125 3.984375 3.203125 4.1875 2.78125 L 5.078125 0.734375 C 5.484375 0.953125 6.546875 1.265625 7.421875 0.671875 C 7.53125 0.59375 7.640625 0.515625 7.71875 0.4375 C 7.953125 0.203125 8.078125 -0.078125 8.109375 -0.390625 C 8.171875 -0.984375 7.796875 -1.421875 7.359375 -1.859375 Z M 7.359375 -1.859375 "/>
</g>
<g id="glyph-3-0">
<path d="M 2.609375 -2.015625 C 2.5 -1.90625 2.5 -1.71875 2.609375 -1.609375 C 2.6875 -1.53125 2.9375 -1.46875 3.046875 -1.578125 C 3.09375 -1.625 3.09375 -1.65625 3.125 -1.71875 C 3.15625 -1.75 3.171875 -1.828125 3.203125 -1.859375 C 3.328125 -1.984375 3.625 -2.03125 3.984375 -1.671875 C 4.171875 -1.484375 4.296875 -1.109375 3.828125 -0.640625 C 3.515625 -0.328125 3.140625 -0.203125 2.5625 -0.1875 L 1.8125 -0.1875 C 0.84375 -0.1875 0.53125 -0.03125 0.234375 0.265625 C 0.234375 0.265625 0.515625 0.515625 0.65625 0.65625 L 1.53125 1.53125 C 1.6875 1.6875 1.890625 1.921875 1.890625 1.921875 C 2.234375 1.734375 2.640625 1.390625 2.796875 1.265625 C 2.796875 1.203125 2.75 1.125 2.6875 1.09375 C 2.234375 1.359375 2.046875 1.390625 1.875 1.21875 L 0.984375 0.328125 C 1.203125 0.109375 1.890625 0.109375 1.953125 0.109375 L 2.921875 0.140625 C 3.484375 0.140625 3.890625 0.140625 4.265625 -0.234375 C 4.796875 -0.765625 4.59375 -1.40625 4.1875 -1.8125 C 3.640625 -2.359375 2.890625 -2.296875 2.609375 -2.015625 Z M 2.609375 -2.015625 "/>
</g>
<g id="glyph-3-1">
<path d="M 3.890625 -1.765625 C 4.09375 -1.5625 4.171875 -1.234375 3.859375 -0.921875 C 3.609375 -0.671875 2.953125 -0.578125 2.390625 -0.984375 L 2.25 -0.8125 C 2.359375 -0.734375 2.4375 -0.65625 2.515625 -0.578125 C 2.78125 -0.3125 3.078125 0.140625 2.53125 0.6875 C 1.859375 1.359375 1.28125 1.03125 1.125 0.875 C 0.859375 0.609375 0.9375 0.46875 0.96875 0.3125 C 0.96875 0.1875 0.96875 0.0625 0.875 -0.03125 C 0.78125 -0.125 0.578125 -0.140625 0.5 -0.0625 C 0.3125 0.125 0.578125 0.671875 0.875 0.96875 C 1.46875 1.5625 2.359375 1.703125 3.015625 1.046875 C 3.546875 0.515625 3.359375 -0.078125 3.09375 -0.40625 L 3.109375 -0.421875 C 3.6875 -0.21875 4.03125 -0.3125 4.28125 -0.5625 C 4.421875 -0.703125 4.53125 -0.875 4.515625 -1.109375 C 4.515625 -1.328125 4.421875 -1.578125 4.15625 -1.84375 C 3.4375 -2.5625 2.765625 -2.296875 2.609375 -2.140625 C 2.53125 -2.0625 2.484375 -1.921875 2.59375 -1.8125 C 2.78125 -1.625 2.953125 -1.765625 3.0625 -1.875 C 3.359375 -2.171875 3.75 -1.90625 3.890625 -1.765625 Z M 3.890625 -1.765625 "/>
</g>
<g id="glyph-4-0">
<path d="M 0.390625 -2.265625 C 0.390625 -1.859375 0.4375 0.21875 2.296875 1.828125 L 2.5 1.671875 C 2.203125 1.34375 1.140625 0.09375 1.140625 -2.265625 C 1.140625 -4.625 2.21875 -5.859375 2.5 -6.171875 L 2.296875 -6.34375 C 1.234375 -5.421875 0.390625 -3.921875 0.390625 -2.265625 Z M 0.390625 -2.265625 "/>
</g>
<g id="glyph-4-1">
<path d="M 1.8125 0.03125 C 1.90625 0 2 0 2.09375 0 C 2.171875 0 2.28125 0 2.359375 0.03125 C 2.828125 -1.28125 3.375 -2.5625 3.96875 -3.875 C 3.890625 -3.84375 3.71875 -3.84375 3.625 -3.84375 C 3.53125 -3.84375 3.40625 -3.84375 3.3125 -3.875 C 2.953125 -2.859375 2.640625 -1.6875 2.21875 -0.8125 L 2.203125 -0.8125 C 1.765625 -1.828125 1.46875 -2.84375 1.140625 -3.875 C 1.03125 -3.84375 0.828125 -3.84375 0.703125 -3.84375 C 0.5625 -3.84375 0.328125 -3.84375 0.171875 -3.875 C 0.78125 -2.5625 1.3125 -1.28125 1.8125 0.03125 Z M 1.8125 0.03125 "/>
</g>
<g id="glyph-4-2">
<path d="M 2.78125 -2.015625 L 2.75 -0.953125 C 2.75 -0.828125 2.6875 -0.765625 2.625 -0.71875 C 2.375 -0.53125 2.0625 -0.375 1.796875 -0.375 C 1.390625 -0.375 1.125 -0.640625 1.125 -0.921875 C 1.125 -1.3125 1.3125 -1.625 2.015625 -1.8125 Z M 2.78125 -0.4375 C 2.875 -0.078125 3.140625 0.09375 3.484375 0.09375 C 3.703125 0.09375 3.984375 0.03125 4.1875 -0.1875 L 4.125 -0.40625 C 4.03125 -0.375 3.953125 -0.359375 3.890625 -0.359375 C 3.796875 -0.359375 3.671875 -0.375 3.609375 -0.4375 C 3.53125 -0.515625 3.46875 -0.71875 3.46875 -1.125 C 3.46875 -1.390625 3.5 -2.390625 3.5 -2.484375 C 3.5 -3.6875 2.703125 -3.9375 2.015625 -3.9375 C 1.34375 -3.9375 0.921875 -3.609375 0.703125 -3.421875 L 0.671875 -3.375 L 0.828125 -2.78125 L 0.9375 -2.765625 C 1.1875 -3.171875 1.5 -3.53125 1.921875 -3.53125 C 2.25 -3.53125 2.796875 -3.484375 2.796875 -2.46875 C 2.796875 -2.40625 2.75 -2.375 2.71875 -2.375 L 1.890625 -2.171875 C 0.984375 -1.96875 0.40625 -1.484375 0.40625 -0.875 C 0.40625 -0.21875 0.859375 0.09375 1.53125 0.09375 C 2.015625 0.09375 2.265625 -0.03125 2.75 -0.4375 Z M 2.78125 -0.4375 "/>
</g>
<g id="glyph-4-3">
<path d="M 1.5 -3 L 1.5 -3.8125 C 1.5 -3.875 1.484375 -3.90625 1.4375 -3.90625 C 1.234375 -3.859375 0.921875 -3.84375 0.71875 -3.875 L 0.703125 -3.84375 C 0.765625 -3.453125 0.78125 -2.78125 0.78125 -2.109375 L 0.78125 -1.609375 C 0.78125 -0.9375 0.765625 -0.46875 0.703125 0 L 0.71875 0.03125 C 0.828125 0.015625 1.03125 0 1.140625 0 C 1.25 0 1.453125 0.015625 1.5625 0.03125 L 1.578125 0 C 1.5 -0.515625 1.5 -0.9375 1.5 -1.609375 L 1.5 -2.078125 C 1.5 -2.453125 1.609375 -2.671875 1.796875 -2.96875 C 1.921875 -3.171875 2.140625 -3.28125 2.3125 -3.28125 C 2.484375 -3.28125 2.65625 -3.265625 2.765625 -3.15625 L 2.84375 -3.171875 L 3.015625 -3.84375 L 2.984375 -3.875 C 2.828125 -3.921875 2.828125 -3.9375 2.65625 -3.9375 C 2.171875 -3.9375 1.921875 -3.65625 1.53125 -2.984375 Z M 1.5 -3 "/>
</g>
<g id="glyph-4-4">
<path d="M 0.8125 -2.109375 L 0.8125 -1.609375 C 0.8125 -0.9375 0.796875 -0.484375 0.71875 0 L 0.75 0.03125 C 0.859375 0.015625 1.0625 0 1.171875 0 C 1.28125 0 1.484375 0.015625 1.59375 0.03125 L 1.609375 0 C 1.53125 -0.5 1.53125 -0.9375 1.53125 -1.609375 L 1.53125 -2.25 C 1.53125 -2.921875 1.546875 -3.25 1.609375 -3.796875 C 1.609375 -3.875 1.59375 -3.890625 1.53125 -3.890625 C 1.3125 -3.859375 0.9375 -3.859375 0.75 -3.875 L 0.71875 -3.84375 C 0.78125 -3.46875 0.8125 -2.78125 0.8125 -2.109375 Z M 0.71875 -5.359375 C 0.71875 -5.109375 0.9375 -4.890625 1.171875 -4.890625 C 1.421875 -4.890625 1.625 -5.109375 1.625 -5.359375 C 1.625 -5.59375 1.421875 -5.8125 1.171875 -5.8125 C 0.9375 -5.8125 0.71875 -5.59375 0.71875 -5.359375 Z M 0.71875 -5.359375 "/>
</g>
<g id="glyph-4-5">
<path d="M 1.453125 -0.71875 L 1.453125 -3.046875 C 1.796875 -3.40625 2.03125 -3.578125 2.390625 -3.578125 C 2.9375 -3.578125 3.421875 -3.125 3.421875 -2.015625 C 3.421875 -0.890625 3.09375 -0.265625 2.25 -0.265625 C 1.96875 -0.265625 1.625 -0.5 1.453125 -0.71875 Z M 1.453125 -4.484375 C 1.453125 -5.140625 1.46875 -5.609375 1.5 -6.171875 C 1.5 -6.234375 1.484375 -6.265625 1.421875 -6.265625 C 1.1875 -6.171875 1 -6.109375 0.640625 -6.078125 L 0.625 -6.046875 C 0.6875 -5.671875 0.734375 -5 0.734375 -4.328125 L 0.734375 -0.65625 C 0.734375 -0.3125 0.71875 -0.171875 0.6875 0.015625 C 0.75 0.078125 0.84375 0.09375 0.9375 0.09375 C 1.046875 -0.015625 1.140625 -0.171875 1.234375 -0.34375 C 1.5 -0.125 1.90625 0.09375 2.296875 0.09375 C 3.203125 0.09375 4.21875 -0.5625 4.21875 -2.078125 C 4.21875 -3.171875 3.4375 -3.9375 2.578125 -3.9375 C 2.140625 -3.9375 1.765625 -3.828125 1.453125 -3.484375 Z M 1.453125 -4.484375 "/>
</g>
<g id="glyph-4-6">
<path d="M 1.125 -2.453125 C 1.28125 -3.375 1.859375 -3.578125 2.140625 -3.578125 C 2.5 -3.578125 2.890625 -3.25 2.890625 -2.578125 C 2.890625 -2.5 2.859375 -2.453125 2.765625 -2.453125 Z M 3.515625 -0.9375 C 3.203125 -0.59375 2.78125 -0.4375 2.28125 -0.4375 C 1.96875 -0.4375 1.546875 -0.5625 1.3125 -0.953125 C 1.140625 -1.203125 1.09375 -1.5625 1.09375 -2.09375 L 3.53125 -2.09375 C 3.625 -2.09375 3.6875 -2.140625 3.6875 -2.25 C 3.6875 -3 3.328125 -3.9375 2.140625 -3.9375 C 1.21875 -3.9375 0.3125 -3.1875 0.3125 -1.875 C 0.3125 -1.359375 0.40625 -0.859375 0.703125 -0.5 C 1.015625 -0.125 1.53125 0.09375 2.140625 0.09375 C 2.78125 0.09375 3.359375 -0.234375 3.6875 -0.703125 Z M 3.515625 -0.9375 "/>
</g>
<g id="glyph-4-7">
<path d="M 0.8125 -1.796875 C 0.8125 -1.125 0.796875 -0.46875 0.71875 0 L 0.75 0.03125 C 0.859375 0.015625 1.0625 0 1.171875 0 C 1.28125 0 1.484375 0.015625 1.59375 0.03125 L 1.609375 0 C 1.53125 -0.515625 1.53125 -1.109375 1.53125 -1.796875 L 1.53125 -4.484375 C 1.53125 -5.15625 1.5625 -5.59375 1.609375 -6.171875 C 1.609375 -6.234375 1.578125 -6.265625 1.53125 -6.265625 C 1.296875 -6.171875 1.109375 -6.109375 0.75 -6.078125 L 0.71875 -6.046875 C 0.796875 -5.671875 0.8125 -5 0.8125 -4.328125 Z M 0.8125 -1.796875 "/>
</g>
<g id="glyph-4-8">
<path d="M 2.296875 -2.265625 C 2.296875 -2.65625 2.265625 -4.734375 0.390625 -6.34375 L 0.1875 -6.203125 C 0.484375 -5.859375 1.546875 -4.625 1.546875 -2.265625 C 1.546875 0.09375 0.46875 1.34375 0.1875 1.65625 L 0.390625 1.828125 C 1.46875 0.90625 2.296875 -0.59375 2.296875 -2.265625 Z M 2.296875 -2.265625 "/>
</g>
<g id="glyph-5-0">
<path d="M 3.84375 -6.1875 C 4.34375 -6.1875 4.921875 -6 4.921875 -5.1875 C 4.921875 -5.0625 4.90625 -4.921875 4.875 -4.765625 C 4.640625 -3.515625 3.859375 -3.234375 2.9375 -3.234375 L 2.453125 -3.234375 L 2.9375 -5.71875 C 2.984375 -6.015625 3.15625 -6.1875 3.84375 -6.1875 Z M 3.890625 -6.515625 C 3.65625 -6.515625 3.0625 -6.4375 2.6875 -6.4375 C 2.296875 -6.4375 1.921875 -6.4375 1.46875 -6.453125 L 1.453125 -6.4375 L 1.40625 -6.21875 C 1.390625 -6.1875 1.421875 -6.15625 1.453125 -6.15625 L 1.828125 -6.140625 C 1.96875 -6.125 2.15625 -6.046875 2.15625 -5.8125 C 2.15625 -5.78125 2.15625 -5.75 2.15625 -5.71875 L 1.1875 -0.71875 C 1.140625 -0.4375 0.984375 -0.3125 0.578125 -0.296875 L 0.328125 -0.265625 C 0.28125 -0.265625 0.25 -0.234375 0.234375 -0.1875 L 0.203125 0 L 0.21875 0.015625 C 0.671875 0.015625 1.0625 0 1.4375 0 C 1.8125 0 2.203125 0.015625 2.65625 0.015625 L 2.6875 0 L 2.71875 -0.1875 C 2.71875 -0.234375 2.6875 -0.265625 2.65625 -0.265625 L 2.40625 -0.296875 C 2.078125 -0.3125 1.9375 -0.375 1.9375 -0.59375 C 1.9375 -0.625 1.953125 -0.671875 1.96875 -0.71875 L 2.390625 -2.90625 C 3.1875 -2.90625 3.359375 -2.75 3.453125 -2.515625 L 4.140625 -0.78125 C 4.328125 -0.3125 4.65625 0.09375 5.234375 0.09375 C 5.375 0.09375 5.546875 0.078125 5.65625 0.03125 L 5.6875 -0.203125 C 5.25 -0.203125 5.078125 -0.546875 4.921875 -0.984375 L 4.109375 -3.078125 C 4.5625 -3.203125 5.515625 -3.734375 5.71875 -4.78125 C 5.734375 -4.90625 5.765625 -5.03125 5.765625 -5.140625 C 5.765625 -5.484375 5.65625 -5.765625 5.453125 -6.015625 C 5.078125 -6.46875 4.5 -6.515625 3.890625 -6.515625 Z M 3.890625 -6.515625 "/>
</g>
<g id="glyph-5-1">
<path d="M 2.03125 0.09375 C 4 0.09375 4.6875 -1.171875 5.03125 -2.9375 L 5.5625 -5.6875 C 5.609375 -5.96875 5.765625 -6.109375 6.1875 -6.140625 L 6.4375 -6.15625 C 6.484375 -6.15625 6.515625 -6.1875 6.515625 -6.234375 L 6.5625 -6.4375 L 6.546875 -6.453125 C 6.09375 -6.4375 5.703125 -6.4375 5.484375 -6.4375 C 5.265625 -6.4375 4.890625 -6.4375 4.4375 -6.453125 L 4.421875 -6.4375 L 4.375 -6.234375 C 4.359375 -6.1875 4.40625 -6.15625 4.4375 -6.15625 L 4.6875 -6.140625 C 5 -6.109375 5.140625 -6.015625 5.140625 -5.828125 C 5.140625 -5.765625 5.140625 -5.734375 5.125 -5.6875 L 4.5625 -2.765625 C 4.34375 -1.640625 3.9375 -0.3125 2.3125 -0.3125 C 1.859375 -0.3125 1.5 -0.515625 1.28125 -0.8125 C 1.0625 -1.0625 1 -1.375 1 -1.703125 C 1 -2.03125 1.0625 -2.359375 1.125 -2.6875 L 1.71875 -5.703125 C 1.78125 -5.984375 1.9375 -6.109375 2.328125 -6.140625 L 2.578125 -6.15625 C 2.625 -6.15625 2.65625 -6.1875 2.671875 -6.234375 L 2.71875 -6.4375 L 2.6875 -6.453125 C 2.25 -6.4375 1.84375 -6.4375 1.46875 -6.4375 C 1.09375 -6.4375 0.703125 -6.4375 0.265625 -6.453125 L 0.234375 -6.4375 L 0.203125 -6.234375 C 0.1875 -6.1875 0.21875 -6.15625 0.265625 -6.15625 L 0.515625 -6.140625 C 0.8125 -6.109375 0.953125 -6.03125 0.953125 -5.828125 C 0.953125 -5.796875 0.953125 -5.734375 0.953125 -5.703125 L 0.296875 -2.359375 C 0.234375 -2.09375 0.203125 -1.859375 0.203125 -1.65625 C 0.203125 -0.21875 1.28125 0.09375 2.03125 0.09375 Z M 2.03125 0.09375 "/>
</g>
<g id="glyph-5-2">
<path d="M 2.5 -4.34375 L 2.5 -2.75 L 0.84375 -2.75 C 0.734375 -2.75 0.59375 -2.5625 0.59375 -2.40625 C 0.59375 -2.328125 0.65625 -2.25 0.75 -2.25 L 2.5 -2.25 L 2.5 -0.5625 C 2.5 -0.46875 2.578125 -0.40625 2.65625 -0.40625 C 2.796875 -0.40625 2.984375 -0.53125 2.984375 -0.65625 L 2.984375 -2.25 L 4.609375 -2.25 C 4.75 -2.25 4.890625 -2.484375 4.890625 -2.578125 C 4.890625 -2.65625 4.84375 -2.75 4.75 -2.75 L 2.984375 -2.75 L 2.984375 -4.46875 C 2.984375 -4.5625 2.90625 -4.609375 2.828125 -4.609375 C 2.71875 -4.609375 2.5 -4.46875 2.5 -4.34375 Z M 2.5 -4.34375 "/>
</g>
<g id="glyph-5-3">
<path d="M 4.609375 -2.25 C 4.75 -2.25 4.890625 -2.484375 4.890625 -2.578125 C 4.890625 -2.65625 4.84375 -2.75 4.75 -2.75 L 0.84375 -2.75 C 0.734375 -2.75 0.59375 -2.5625 0.59375 -2.40625 C 0.59375 -2.328125 0.65625 -2.25 0.75 -2.25 Z M 4.609375 -2.25 "/>
</g>
<g id="glyph-5-4">
<path d="M 3.234375 -2.828125 C 3.078125 -2.828125 2.984375 -2.828125 2.984375 -2.875 C 2.984375 -2.90625 3 -2.921875 3.015625 -2.953125 L 4.46875 -5.484375 L 4.484375 -5.484375 L 4.890625 -2.828125 Z M 1.78125 -0.78125 L 2.609375 -2.234375 C 2.6875 -2.359375 2.75 -2.40625 2.984375 -2.40625 L 4.96875 -2.40625 L 5.21875 -0.71875 C 5.21875 -0.671875 5.21875 -0.640625 5.21875 -0.625 C 5.21875 -0.40625 5.0625 -0.3125 4.75 -0.296875 L 4.46875 -0.265625 C 4.421875 -0.265625 4.390625 -0.234375 4.390625 -0.1875 L 4.359375 0 L 4.375 0.015625 C 4.734375 0.015625 5.28125 0 5.640625 0 C 6.03125 0 6.421875 0.015625 6.765625 0.015625 L 6.78125 0 L 6.8125 -0.1875 C 6.8125 -0.234375 6.78125 -0.265625 6.734375 -0.265625 L 6.625 -0.28125 C 6.25 -0.3125 6.09375 -0.46875 6.03125 -0.859375 L 5.109375 -6.265625 C 5.078125 -6.453125 5.046875 -6.5625 4.921875 -6.5625 C 4.78125 -6.5625 4.6875 -6.46875 4.53125 -6.203125 L 1.390625 -1.015625 C 1.015625 -0.40625 0.734375 -0.296875 0.3125 -0.265625 C 0.265625 -0.265625 0.234375 -0.234375 0.234375 -0.1875 L 0.203125 0 L 0.203125 0.015625 C 0.5625 0.015625 0.734375 0 1.09375 0 C 1.484375 0 2 0.015625 2.34375 0.015625 L 2.375 0 L 2.390625 -0.1875 C 2.390625 -0.234375 2.375 -0.265625 2.328125 -0.265625 L 2.0625 -0.296875 C 1.8125 -0.3125 1.6875 -0.40625 1.6875 -0.546875 C 1.6875 -0.625 1.71875 -0.703125 1.78125 -0.78125 Z M 1.78125 -0.78125 "/>
</g>
<g id="glyph-5-5">
<path d="M 2.9375 -5.6875 C 2.984375 -6.015625 3.015625 -6.109375 3.84375 -6.109375 C 4.3125 -6.109375 4.875 -5.875 4.875 -5.140625 C 4.875 -5.03125 4.859375 -4.921875 4.84375 -4.796875 C 4.671875 -3.953125 4.03125 -3.65625 3.234375 -3.65625 L 2.53125 -3.65625 Z M 2.46875 -3.3125 L 3.125 -3.3125 C 4.25 -3.3125 4.71875 -2.734375 4.71875 -2 C 4.71875 -1.890625 4.703125 -1.765625 4.6875 -1.640625 C 4.53125 -0.921875 4.140625 -0.3125 2.6875 -0.3125 C 2.109375 -0.3125 1.953125 -0.40625 1.953125 -0.640625 C 1.953125 -0.671875 1.96875 -0.71875 1.96875 -0.78125 Z M 0.234375 -0.1875 L 0.203125 0 L 0.21875 0.015625 C 0.671875 0.015625 1.0625 0 1.4375 0 C 1.8125 0 1.9375 0.015625 2.796875 0.015625 C 4.703125 0.015625 5.40625 -0.984375 5.578125 -1.828125 C 5.59375 -1.96875 5.609375 -2.078125 5.609375 -2.1875 C 5.609375 -2.9375 5.140625 -3.375 4.453125 -3.59375 L 4.453125 -3.609375 C 4.984375 -3.859375 5.5 -4.375 5.609375 -4.921875 C 5.625 -5.03125 5.640625 -5.15625 5.640625 -5.28125 C 5.640625 -5.859375 5.296875 -6.453125 3.84375 -6.453125 C 3.515625 -6.453125 3.078125 -6.4375 2.6875 -6.4375 C 2.3125 -6.4375 1.921875 -6.4375 1.46875 -6.453125 L 1.453125 -6.4375 L 1.40625 -6.234375 C 1.40625 -6.1875 1.421875 -6.15625 1.46875 -6.15625 L 1.75 -6.140625 C 2.0625 -6.109375 2.1875 -6.078125 2.1875 -5.890625 C 2.1875 -5.84375 2.171875 -5.796875 2.15625 -5.71875 L 1.1875 -0.703125 C 1.109375 -0.359375 1.015625 -0.3125 0.609375 -0.296875 L 0.3125 -0.265625 C 0.265625 -0.265625 0.25 -0.234375 0.234375 -0.1875 Z M 0.234375 -0.1875 "/>
</g>
<g id="glyph-5-6">
<path d="M 2.6875 0.09375 C 3.609375 0.09375 4.5625 -0.359375 5.375 -1.25 C 5.34375 -1.328125 5.296875 -1.390625 5.1875 -1.390625 C 4.359375 -0.625 3.640625 -0.3125 2.75 -0.3125 C 1.546875 -0.3125 1.046875 -1.328125 1.046875 -2.484375 C 1.046875 -2.765625 1.078125 -3.046875 1.140625 -3.328125 C 1.53125 -5.359375 3.046875 -6.1875 3.8125 -6.1875 C 5.140625 -6.1875 5.53125 -5.390625 5.609375 -4.53125 L 5.90625 -4.5625 C 5.90625 -5.078125 5.9375 -5.578125 5.984375 -6.109375 C 5.453125 -6.140625 5.15625 -6.5625 3.984375 -6.5625 C 2.40625 -6.5625 0.640625 -5.109375 0.265625 -3.140625 C 0.21875 -2.890625 0.1875 -2.640625 0.1875 -2.40625 C 0.1875 -1.0625 0.9375 0.09375 2.6875 0.09375 Z M 2.6875 0.09375 "/>
</g>
<g id="glyph-5-7">
<path d="M 0.234375 -0.171875 L 0.203125 0 L 0.21875 0.015625 C 0.671875 0.015625 1.046875 0 1.4375 0 C 1.796875 0 2.171875 0.015625 3.15625 0.015625 C 4.515625 0.015625 6.421875 -0.625 6.890625 -3.078125 C 6.921875 -3.296875 6.953125 -3.515625 6.953125 -3.734375 C 6.953125 -5.28125 5.859375 -6.453125 4.25 -6.453125 C 3.640625 -6.453125 3.078125 -6.4375 2.6875 -6.4375 C 2.3125 -6.4375 1.921875 -6.4375 1.46875 -6.453125 L 1.453125 -6.4375 L 1.421875 -6.234375 C 1.40625 -6.1875 1.4375 -6.15625 1.484375 -6.15625 L 1.75 -6.140625 C 2.046875 -6.109375 2.1875 -6.078125 2.1875 -5.875 C 2.1875 -5.828125 2.171875 -5.765625 2.15625 -5.703125 L 1.203125 -0.734375 C 1.140625 -0.421875 0.953125 -0.3125 0.609375 -0.296875 L 0.3125 -0.265625 C 0.28125 -0.265625 0.234375 -0.234375 0.234375 -0.171875 Z M 1.96875 -0.734375 L 2.9375 -5.71875 C 3.015625 -6.078125 3.34375 -6.109375 3.8125 -6.109375 C 5.484375 -6.109375 6.046875 -4.96875 6.046875 -3.734375 C 6.046875 -3.421875 6.015625 -3.125 5.96875 -2.828125 C 5.578125 -0.8125 4.28125 -0.3125 2.9375 -0.3125 C 2.140625 -0.3125 1.9375 -0.375 1.9375 -0.59375 C 1.9375 -0.640625 1.953125 -0.671875 1.96875 -0.734375 Z M 1.96875 -0.734375 "/>
</g>
<g id="glyph-5-8">
<path d="M 2.140625 -5.671875 L 1.171875 -0.75 C 1.109375 -0.46875 0.953125 -0.328125 0.546875 -0.296875 L 0.234375 -0.265625 C 0.203125 -0.234375 0.171875 -0.0625 0.21875 0.015625 C 0.671875 0.015625 1.03125 0 1.421875 0 C 1.796875 0 2.25 0.015625 2.6875 0.015625 C 2.71875 -0.015625 2.734375 -0.21875 2.71875 -0.265625 L 2.375 -0.296875 C 1.984375 -0.328125 1.875 -0.453125 1.9375 -0.75 L 2.90625 -5.671875 C 2.953125 -5.953125 3.109375 -6.09375 3.515625 -6.125 L 3.828125 -6.15625 C 3.875 -6.203125 3.890625 -6.359375 3.84375 -6.453125 C 3.40625 -6.4375 3.046875 -6.4375 2.65625 -6.4375 C 2.265625 -6.4375 1.828125 -6.4375 1.390625 -6.453125 C 1.359375 -6.40625 1.328125 -6.203125 1.359375 -6.15625 L 1.6875 -6.125 C 2.078125 -6.09375 2.1875 -5.96875 2.140625 -5.671875 Z M 2.140625 -5.671875 "/>
</g>
<g id="glyph-6-0">
<path d="M 2.046875 -3.96875 C 2.09375 -4.203125 2.109375 -4.265625 2.6875 -4.265625 C 3.015625 -4.265625 3.40625 -4.109375 3.40625 -3.59375 C 3.40625 -3.515625 3.40625 -3.4375 3.390625 -3.359375 C 3.265625 -2.765625 2.828125 -2.546875 2.265625 -2.546875 L 1.765625 -2.546875 Z M 1.734375 -2.3125 L 2.1875 -2.3125 C 2.96875 -2.3125 3.296875 -1.90625 3.296875 -1.40625 C 3.296875 -1.3125 3.296875 -1.234375 3.28125 -1.15625 C 3.171875 -0.640625 2.890625 -0.21875 1.875 -0.21875 C 1.484375 -0.21875 1.359375 -0.28125 1.359375 -0.453125 C 1.359375 -0.46875 1.375 -0.5 1.375 -0.546875 Z M 0.171875 -0.125 L 0.140625 0 L 0.15625 0.015625 C 0.46875 0 0.734375 0 1 0 C 1.265625 0 1.359375 0.015625 1.953125 0.015625 C 3.296875 0.015625 3.78125 -0.6875 3.890625 -1.28125 C 3.90625 -1.375 3.921875 -1.453125 3.921875 -1.53125 C 3.921875 -2.046875 3.59375 -2.359375 3.109375 -2.515625 C 3.484375 -2.703125 3.84375 -3.0625 3.921875 -3.4375 C 3.9375 -3.515625 3.9375 -3.609375 3.9375 -3.6875 C 3.9375 -4.09375 3.703125 -4.515625 2.6875 -4.515625 C 2.453125 -4.515625 2.140625 -4.5 1.875 -4.5 C 1.609375 -4.5 1.34375 -4.5 1.03125 -4.515625 L 1.015625 -4.5 L 0.984375 -4.359375 C 0.984375 -4.328125 0.984375 -4.3125 1.03125 -4.3125 L 1.21875 -4.296875 C 1.4375 -4.265625 1.53125 -4.25 1.53125 -4.125 C 1.53125 -4.078125 1.515625 -4.046875 1.515625 -4 L 0.828125 -0.5 C 0.78125 -0.25 0.703125 -0.21875 0.421875 -0.203125 L 0.21875 -0.1875 C 0.1875 -0.1875 0.171875 -0.171875 0.171875 -0.125 Z M 0.171875 -0.125 "/>
</g>
<g id="glyph-6-1">
<path d="M 1.609375 -4 C 1.734375 -4 1.84375 -3.96875 1.9375 -3.890625 C 2.140625 -3.703125 2.328125 -3.171875 2.328125 -2.25 C 2.328125 -1.609375 2.3125 -1.15625 2.21875 -0.8125 C 2.0625 -0.234375 1.71875 -0.171875 1.59375 -0.171875 C 0.953125 -0.171875 0.875 -1.359375 0.875 -1.96875 C 0.875 -3.6875 1.296875 -4 1.609375 -4 Z M 1.59375 0.0625 C 2.125 0.0625 2.9375 -0.46875 2.9375 -2.109375 C 2.9375 -2.796875 2.78125 -3.390625 2.46875 -3.796875 C 2.28125 -4.03125 2 -4.25 1.609375 -4.25 C 0.921875 -4.25 0.265625 -3.421875 0.265625 -2.046875 C 0.265625 -1.296875 0.5 -0.59375 0.875 -0.21875 C 1.078125 -0.015625 1.3125 0.0625 1.59375 0.0625 Z M 1.59375 0.0625 "/>
</g>
<g id="glyph-6-2">
<path d="M 2 -0.84375 L 2 -3.265625 C 2 -3.6875 2.015625 -4.109375 2.03125 -4.203125 C 2.03125 -4.234375 2 -4.234375 1.984375 -4.234375 C 1.59375 -4 1.234375 -3.828125 0.625 -3.546875 C 0.625 -3.453125 0.65625 -3.390625 0.71875 -3.359375 C 1.03125 -3.484375 1.203125 -3.53125 1.328125 -3.53125 C 1.4375 -3.53125 1.46875 -3.359375 1.46875 -3.125 L 1.46875 -0.84375 C 1.46875 -0.265625 1.28125 -0.234375 0.796875 -0.21875 C 0.75 -0.171875 0.75 -0.03125 0.796875 0.015625 C 1.140625 0 1.375 0 1.765625 0 C 2.09375 0 2.265625 0 2.609375 0.015625 C 2.65625 -0.03125 2.65625 -0.171875 2.609375 -0.21875 C 2.125 -0.234375 2 -0.265625 2 -0.84375 Z M 2 -0.84375 "/>
</g>
<g id="glyph-6-3">
<path d="M 1.5 -4 C 1.796875 -4 2.078125 -3.828125 2.078125 -3.375 C 2.078125 -3.03125 1.671875 -2.5 0.984375 -2.390625 L 1.015625 -2.171875 C 1.140625 -2.1875 1.265625 -2.1875 1.359375 -2.1875 C 1.75 -2.1875 2.265625 -2.078125 2.265625 -1.296875 C 2.265625 -0.359375 1.640625 -0.171875 1.40625 -0.171875 C 1.046875 -0.171875 0.984375 -0.328125 0.90625 -0.453125 C 0.828125 -0.5625 0.734375 -0.640625 0.59375 -0.640625 C 0.453125 -0.640625 0.3125 -0.515625 0.3125 -0.390625 C 0.3125 -0.125 0.890625 0.0625 1.3125 0.0625 C 2.140625 0.0625 2.875 -0.46875 2.875 -1.390625 C 2.875 -2.140625 2.3125 -2.421875 1.890625 -2.484375 L 1.890625 -2.5 C 2.453125 -2.765625 2.625 -3.0625 2.625 -3.421875 C 2.625 -3.625 2.578125 -3.8125 2.40625 -3.984375 C 2.25 -4.125 2 -4.25 1.640625 -4.25 C 0.625 -4.25 0.328125 -3.578125 0.328125 -3.359375 C 0.328125 -3.25 0.390625 -3.109375 0.5625 -3.109375 C 0.8125 -3.109375 0.84375 -3.34375 0.84375 -3.484375 C 0.84375 -3.921875 1.3125 -4 1.5 -4 Z M 1.5 -4 "/>
</g>
<g id="glyph-6-4">
<path d="M 1.890625 -3.53125 L 1.890625 -1.53125 L 0.5625 -1.53125 C 0.90625 -2.09375 1.40625 -2.875 1.890625 -3.53125 Z M 3 -1.53125 L 2.421875 -1.53125 L 2.421875 -3.5625 C 2.421875 -3.90625 2.421875 -4.1875 2.4375 -4.234375 L 2.421875 -4.25 L 2.1875 -4.25 C 2.140625 -4.25 2.109375 -4.203125 2.078125 -4.171875 C 1.640625 -3.625 0.828125 -2.484375 0.1875 -1.484375 C 0.21875 -1.390625 0.265625 -1.203125 0.46875 -1.203125 L 1.890625 -1.203125 L 1.890625 -0.5625 C 1.890625 -0.234375 1.625 -0.234375 1.328125 -0.21875 C 1.28125 -0.171875 1.28125 -0.03125 1.328125 0.015625 C 1.546875 0 1.828125 0 2.140625 0 C 2.421875 0 2.6875 0 2.90625 0.015625 C 2.953125 -0.03125 2.953125 -0.171875 2.90625 -0.21875 C 2.5625 -0.25 2.421875 -0.234375 2.421875 -0.5625 L 2.421875 -1.203125 L 2.90625 -1.203125 C 3 -1.203125 3.09375 -1.328125 3.09375 -1.421875 C 3.09375 -1.484375 3.078125 -1.53125 3 -1.53125 Z M 3 -1.53125 "/>
</g>
<g id="glyph-6-5">
<path d="M 0.421875 -3.265625 C 0.421875 -3.109375 0.5625 -2.984375 0.703125 -2.984375 C 0.828125 -2.984375 1.03125 -3.109375 1.03125 -3.265625 C 1.03125 -3.328125 1.015625 -3.359375 1 -3.421875 C 0.984375 -3.46875 0.953125 -3.53125 0.953125 -3.578125 C 0.953125 -3.75 1.125 -4 1.640625 -4 C 1.890625 -4 2.25 -3.828125 2.25 -3.15625 C 2.25 -2.71875 2.078125 -2.359375 1.671875 -1.9375 L 1.15625 -1.421875 C 0.46875 -0.734375 0.359375 -0.390625 0.359375 0.015625 C 0.359375 0.015625 0.71875 0 0.9375 0 L 2.15625 0 C 2.390625 0 2.703125 0.015625 2.703125 0.015625 C 2.796875 -0.359375 2.859375 -0.875 2.875 -1.09375 C 2.828125 -1.125 2.734375 -1.140625 2.671875 -1.125 C 2.546875 -0.625 2.4375 -0.453125 2.1875 -0.453125 L 0.9375 -0.453125 C 0.9375 -0.78125 1.421875 -1.265625 1.453125 -1.296875 L 2.15625 -1.96875 C 2.5625 -2.359375 2.859375 -2.65625 2.859375 -3.1875 C 2.859375 -3.9375 2.25 -4.25 1.671875 -4.25 C 0.90625 -4.25 0.421875 -3.671875 0.421875 -3.265625 Z M 0.421875 -3.265625 "/>
</g>
</g>
<clipPath id="clip-0">
<path clip-rule="nonzero" d="M 19 0 L 341.660156 0 L 341.660156 253.621094 L 19 253.621094 Z M 19 0 "/>
</clipPath>
</defs>
<g clip-path="url(#clip-0)">
<path fill-rule="nonzero" fill="rgb(95.292664%, 95.684814%, 95.684814%)" fill-opacity="1" d="M 19.089844 245.652344 L 19.089844 7.96875 C 19.089844 3.566406 22.660156 -0.00390625 27.0625 -0.00390625 L 333.695312 -0.00390625 C 338.097656 -0.00390625 341.664062 3.566406 341.664062 7.96875 L 341.664062 245.652344 C 341.664062 250.054688 338.097656 253.621094 333.695312 253.621094 L 27.0625 253.621094 C 22.660156 253.621094 19.089844 250.054688 19.089844 245.652344 Z M 19.089844 245.652344 "/>
</g>
<path fill="none" stroke-width="1.59404" stroke-linecap="butt" stroke-linejoin="miter" stroke="rgb(0%, 35.293579%, 58.036804%)" stroke-opacity="1" stroke-miterlimit="10" d="M 113.38575 170.080781 L 28.346687 85.041719 " transform="matrix(1, 0, 0, -1, 31.833, 211.905)"/>
<path fill="none" stroke-width="1.59404" stroke-linecap="butt" stroke-linejoin="miter" stroke="rgb(0%, 35.293579%, 58.036804%)" stroke-opacity="1" stroke-miterlimit="10" d="M 28.346687 85.041719 L 113.38575 -0.00125 " transform="matrix(1, 0, 0, -1, 31.833, 211.905)"/>
<path fill="none" stroke-width="1.59404" stroke-linecap="butt" stroke-linejoin="miter" stroke="rgb(0%, 35.293579%, 58.036804%)" stroke-opacity="1" stroke-miterlimit="10" d="M 113.38575 170.080781 L 198.428719 85.041719 " transform="matrix(1, 0, 0, -1, 31.833, 211.905)"/>
<path fill="none" stroke-width="1.59404" stroke-linecap="butt" stroke-linejoin="miter" stroke="rgb(0%, 35.293579%, 58.036804%)" stroke-opacity="1" stroke-miterlimit="10" d="M 198.428719 85.041719 L 113.38575 -0.00125 " transform="matrix(1, 0, 0, -1, 31.833, 211.905)"/>
<path fill="none" stroke-width="1.59404" stroke-linecap="butt" stroke-linejoin="miter" stroke="rgb(0%, 35.293579%, 58.036804%)" stroke-opacity="1" stroke-miterlimit="10" d="M 28.346687 85.041719 L 198.428719 85.041719 " transform="matrix(1, 0, 0, -1, 31.833, 211.905)"/>
<path fill="none" stroke-width="1.59404" stroke-linecap="butt" stroke-linejoin="miter" stroke="rgb(0%, 35.293579%, 58.036804%)" stroke-opacity="1" stroke-miterlimit="10" d="M 113.38575 -0.00125 L 255.120125 -0.00125 L 255.120125 79.369844 " transform="matrix(1, 0, 0, -1, 31.833, 211.905)"/>
<path fill="none" stroke-width="1.59404" stroke-linecap="butt" stroke-linejoin="miter" stroke="rgb(0%, 35.293579%, 58.036804%)" stroke-opacity="1" stroke-miterlimit="10" d="M 255.120125 90.709688 L 255.120125 170.080781 L 113.38575 170.080781 " transform="matrix(1, 0, 0, -1, 31.833, 211.905)"/>
<path fill-rule="nonzero" fill="rgb(79.998779%, 87.057495%, 91.372681%)" fill-opacity="1" stroke-width="0.79701" stroke-linecap="butt" stroke-linejoin="miter" stroke="rgb(0%, 35.293579%, 58.036804%)" stroke-opacity="1" stroke-miterlimit="10" d="M 64.452156 109.920625 L 53.2295 121.147188 L 77.280281 145.197969 L 88.506844 133.975313 Z M 64.452156 109.920625 " transform="matrix(1, 0, 0, -1, 31.833, 211.905)"/>
<g fill="rgb(0%, 35.293579%, 58.036804%)" fill-opacity="1">
<use xlink:href="#glyph-0-0" x="100.991" y="89.172"/>
</g>
<g fill="rgb(0%, 35.293579%, 58.036804%)" fill-opacity="1">
<use xlink:href="#glyph-1-0" x="106.408093" y="86.713413"/>
</g>
<path fill-rule="nonzero" fill="rgb(79.998779%, 87.057495%, 91.372681%)" fill-opacity="1" stroke-width="0.79701" stroke-linecap="butt" stroke-linejoin="miter" stroke="rgb(0%, 35.293579%, 58.036804%)" stroke-opacity="1" stroke-miterlimit="10" d="M 53.2295 48.93625 L 64.452156 60.158906 L 88.506844 36.104219 L 77.280281 24.881563 Z M 53.2295 48.93625 " transform="matrix(1, 0, 0, -1, 31.833, 211.905)"/>
<g fill="rgb(0%, 35.293579%, 58.036804%)" fill-opacity="1">
<use xlink:href="#glyph-2-0" x="97.873" y="167.677"/>
</g>
<g fill="rgb(0%, 35.293579%, 58.036804%)" fill-opacity="1">
<use xlink:href="#glyph-3-0" x="100.331587" y="173.094093"/>
</g>
<path fill-rule="nonzero" fill="rgb(79.998779%, 87.057495%, 91.372681%)" fill-opacity="1" stroke-width="0.79701" stroke-linecap="butt" stroke-linejoin="miter" stroke="rgb(0%, 35.293579%, 58.036804%)" stroke-opacity="1" stroke-miterlimit="10" d="M 138.268563 133.975313 L 149.491219 145.197969 L 173.545906 121.147188 L 162.32325 109.920625 Z M 138.268563 133.975313 " transform="matrix(1, 0, 0, -1, 31.833, 211.905)"/>
<g fill="rgb(0%, 35.293579%, 58.036804%)" fill-opacity="1">
<use xlink:href="#glyph-2-0" x="182.932" y="82.618"/>
</g>
<g fill="rgb(0%, 35.293579%, 58.036804%)" fill-opacity="1">
<use xlink:href="#glyph-3-1" x="185.390587" y="88.035093"/>
</g>
<path fill-rule="nonzero" fill="rgb(100%, 92.547607%, 49.804688%)" fill-opacity="1" stroke-width="0.79701" stroke-linecap="butt" stroke-linejoin="miter" stroke="rgb(0%, 35.293579%, 58.036804%)" stroke-opacity="1" stroke-miterlimit="10" d="M 149.491219 24.881563 L 138.268563 36.104219 L 162.32325 60.158906 L 173.545906 48.93625 Z M 149.491219 24.881563 " transform="matrix(1, 0, 0, -1, 31.833, 211.905)"/>
<g fill="rgb(0%, 35.293579%, 58.036804%)" fill-opacity="1">
<use xlink:href="#glyph-0-0" x="186.031" y="174.211"/>
</g>
<g fill="rgb(0%, 35.293579%, 58.036804%)" fill-opacity="1">
<use xlink:href="#glyph-1-1" x="191.448093" y="171.752413"/>
</g>
<g fill="rgb(28.234863%, 28.625488%, 28.625488%)" fill-opacity="1">
<use xlink:href="#glyph-4-0" x="191.574" y="185.238"/>
</g>
<g fill="rgb(28.234863%, 28.625488%, 28.625488%)" fill-opacity="1">
<use xlink:href="#glyph-4-1" x="194.111486" y="185.238"/>
<use xlink:href="#glyph-4-2" x="198.253953" y="185.238"/>
<use xlink:href="#glyph-4-3" x="202.566782" y="185.238"/>
<use xlink:href="#glyph-4-4" x="205.749847" y="185.238"/>
<use xlink:href="#glyph-4-2" x="208.081106" y="185.238"/>
<use xlink:href="#glyph-4-5" x="212.393934" y="185.238"/>
</g>
<g fill="rgb(28.234863%, 28.625488%, 28.625488%)" fill-opacity="1">
<use xlink:href="#glyph-4-6" x="217.002654" y="185.238"/>
<use xlink:href="#glyph-4-7" x="221.064424" y="185.238"/>
<use xlink:href="#glyph-4-8" x="223.323952" y="185.238"/>
</g>
<path fill-rule="nonzero" fill="rgb(79.998779%, 87.057495%, 91.372681%)" fill-opacity="1" stroke-width="0.79701" stroke-linecap="butt" stroke-linejoin="miter" stroke="rgb(0%, 35.293579%, 58.036804%)" stroke-opacity="1" stroke-miterlimit="10" d="M 93.545906 75.119844 L 93.545906 94.963594 L 133.2295 94.963594 L 133.2295 75.119844 Z M 93.545906 75.119844 " transform="matrix(1, 0, 0, -1, 31.833, 211.905)"/>
<g fill="rgb(0%, 35.293579%, 58.036804%)" fill-opacity="1">
<use xlink:href="#glyph-5-0" x="140.177" y="129.07"/>
</g>
<g fill="rgb(0%, 35.293579%, 58.036804%)" fill-opacity="1">
<use xlink:href="#glyph-6-0" x="145.746" y="131.162"/>
</g>
<path fill="none" stroke-width="2.98883" stroke-linecap="butt" stroke-linejoin="miter" stroke="rgb(0%, 35.293579%, 58.036804%)" stroke-opacity="1" stroke-miterlimit="10" d="M 248.034188 79.369844 L 262.206062 79.369844 " transform="matrix(1, 0, 0, -1, 31.833, 211.905)"/>
<path fill="none" stroke-width="2.98883" stroke-linecap="butt" stroke-linejoin="miter" stroke="rgb(0%, 35.293579%, 58.036804%)" stroke-opacity="1" stroke-miterlimit="10" d="M 242.366219 90.709688 L 267.877937 90.709688 " transform="matrix(1, 0, 0, -1, 31.833, 211.905)"/>
<g fill="rgb(0%, 35.293579%, 58.036804%)" fill-opacity="1">
<use xlink:href="#glyph-5-1" x="306.377" y="129.007"/>
</g>
<g fill="rgb(0%, 35.293579%, 58.036804%)" fill-opacity="1">
<use xlink:href="#glyph-6-1" x="311.677" y="131.099"/>
</g>
<g fill="rgb(28.234863%, 28.625488%, 28.625488%)" fill-opacity="1">
<use xlink:href="#glyph-5-2" x="278.031" y="114.993"/>
</g>
<g fill="rgb(28.234863%, 28.625488%, 28.625488%)" fill-opacity="1">
<use xlink:href="#glyph-5-3" x="278.031" y="142.413"/>
</g>
<g fill="rgb(28.234863%, 28.625488%, 28.625488%)" fill-opacity="1">
<use xlink:href="#glyph-5-4" x="141.717" y="32.869"/>
</g>
<g fill="rgb(28.234863%, 28.625488%, 28.625488%)" fill-opacity="1">
<use xlink:href="#glyph-5-5" x="45.404" y="130.078"/>
</g>
<g fill="rgb(28.234863%, 28.625488%, 28.625488%)" fill-opacity="1">
<use xlink:href="#glyph-5-6" x="239.196" y="130.093"/>
</g>
<g fill="rgb(28.234863%, 28.625488%, 28.625488%)" fill-opacity="1">
<use xlink:href="#glyph-5-7" x="141.642" y="227.288"/>
</g>
<path fill-rule="nonzero" fill="rgb(90.979004%, 47.059631%, 27.450562%)" fill-opacity="1" stroke-width="0.79701" stroke-linecap="butt" stroke-linejoin="miter" stroke="rgb(95.292664%, 95.684814%, 95.684814%)" stroke-opacity="1" stroke-miterlimit="10" d="M 117.07325 170.080781 C 117.07325 172.115938 115.420906 173.764375 113.38575 173.764375 C 111.350594 173.764375 109.702156 172.115938 109.702156 170.080781 C 109.702156 168.045625 111.350594 166.397188 113.38575 166.397188 C 115.420906 166.397188 117.07325 168.045625 117.07325 170.080781 Z M 117.07325 170.080781 " transform="matrix(1, 0, 0, -1, 31.833, 211.905)"/>
<path fill-rule="nonzero" fill="rgb(90.979004%, 47.059631%, 27.450562%)" fill-opacity="1" stroke-width="0.79701" stroke-linecap="butt" stroke-linejoin="miter" stroke="rgb(95.292664%, 95.684814%, 95.684814%)" stroke-opacity="1" stroke-miterlimit="10" d="M 32.030281 85.041719 C 32.030281 87.076875 30.381844 88.725313 28.346687 88.725313 C 26.311531 88.725313 24.663094 87.076875 24.663094 85.041719 C 24.663094 83.006563 26.311531 81.354219 28.346687 81.354219 C 30.381844 81.354219 32.030281 83.006563 32.030281 85.041719 Z M 32.030281 85.041719 " transform="matrix(1, 0, 0, -1, 31.833, 211.905)"/>
<path fill-rule="nonzero" fill="rgb(90.979004%, 47.059631%, 27.450562%)" fill-opacity="1" stroke-width="0.79701" stroke-linecap="butt" stroke-linejoin="miter" stroke="rgb(95.292664%, 95.684814%, 95.684814%)" stroke-opacity="1" stroke-miterlimit="10" d="M 202.112313 85.041719 C 202.112313 87.076875 200.463875 88.725313 198.428719 88.725313 C 196.393563 88.725313 194.741219 87.076875 194.741219 85.041719 C 194.741219 83.006563 196.393563 81.354219 198.428719 81.354219 C 200.463875 81.354219 202.112313 83.006563 202.112313 85.041719 Z M 202.112313 85.041719 " transform="matrix(1, 0, 0, -1, 31.833, 211.905)"/>
<path fill-rule="nonzero" fill="rgb(90.979004%, 47.059631%, 27.450562%)" fill-opacity="1" stroke-width="0.79701" stroke-linecap="butt" stroke-linejoin="miter" stroke="rgb(95.292664%, 95.684814%, 95.684814%)" stroke-opacity="1" stroke-miterlimit="10" d="M 117.07325 -0.00125 C 117.07325 2.033906 115.420906 3.68625 113.38575 3.68625 C 111.350594 3.68625 109.702156 2.033906 109.702156 -0.00125 C 109.702156 -2.036406 111.350594 -3.684844 113.38575 -3.684844 C 115.420906 -3.684844 117.07325 -2.036406 117.07325 -0.00125 Z M 117.07325 -0.00125 " transform="matrix(1, 0, 0, -1, 31.833, 211.905)"/>
<path fill="none" stroke-width="0.79701" stroke-linecap="butt" stroke-linejoin="miter" stroke="rgb(28.234863%, 28.625488%, 28.625488%)" stroke-opacity="1" stroke-miterlimit="10" d="M 147.401375 170.080781 L 129.092781 170.080781 " transform="matrix(1, 0, 0, -1, 31.833, 211.905)"/>
<path fill-rule="nonzero" fill="rgb(28.234863%, 28.625488%, 28.625488%)" fill-opacity="1" stroke-width="0.79701" stroke-linecap="butt" stroke-linejoin="miter" stroke="rgb(28.234863%, 28.625488%, 28.625488%)" stroke-opacity="1" stroke-miterlimit="10" d="M 5.790532 0.00007875 L 1.329595 1.605548 L 2.806157 0.00007875 L 1.329595 -1.60539 Z M 5.790532 0.00007875 " transform="matrix(-1, 0, 0, 1, 163.53272, 41.82414)"/>
<g fill="rgb(28.234863%, 28.625488%, 28.625488%)" fill-opacity="1">
<use xlink:href="#glyph-5-8" x="164.661" y="33.561"/>
</g>
<g fill="rgb(28.234863%, 28.625488%, 28.625488%)" fill-opacity="1">
<use xlink:href="#glyph-6-1" x="167.46" y="35.653"/>
</g>
<path fill="none" stroke-width="0.79701" stroke-linecap="butt" stroke-linejoin="miter" stroke="rgb(28.234863%, 28.625488%, 28.625488%)" stroke-opacity="1" stroke-miterlimit="10" d="M 56.409188 113.104219 L 46.741219 103.43625 " transform="matrix(1, 0, 0, -1, 31.833, 211.905)"/>
<path fill-rule="nonzero" fill="rgb(28.234863%, 28.625488%, 28.625488%)" fill-opacity="1" stroke-width="0.79701" stroke-linecap="butt" stroke-linejoin="miter" stroke="rgb(28.234863%, 28.625488%, 28.625488%)" stroke-opacity="1" stroke-miterlimit="10" d="M 5.788227 -0.000997914 L 1.327335 1.603818 L 2.805092 -0.000997914 L 1.327335 -1.605814 Z M 5.788227 -0.000997914 " transform="matrix(-0.7071, 0.7071, 0.7071, 0.7071, 80.41778, 106.6266)"/>
<g fill="rgb(28.234863%, 28.625488%, 28.625488%)" fill-opacity="1">
<use xlink:href="#glyph-5-8" x="66.882" y="104.941"/>
</g>
<g fill="rgb(28.234863%, 28.625488%, 28.625488%)" fill-opacity="1">
<use xlink:href="#glyph-6-2" x="69.681" y="107.033"/>
</g>
<path fill="none" stroke-width="0.79701" stroke-linecap="butt" stroke-linejoin="miter" stroke="rgb(28.234863%, 28.625488%, 28.625488%)" stroke-opacity="1" stroke-miterlimit="10" d="M 170.362313 113.104219 L 180.034188 103.43625 " transform="matrix(1, 0, 0, -1, 31.833, 211.905)"/>
<path fill-rule="nonzero" fill="rgb(28.234863%, 28.625488%, 28.625488%)" fill-opacity="1" stroke-width="0.79701" stroke-linecap="butt" stroke-linejoin="miter" stroke="rgb(28.234863%, 28.625488%, 28.625488%)" stroke-opacity="1" stroke-miterlimit="10" d="M 5.78886 0.00170388 L 1.327947 1.606563 L 2.805703 0.00172498 L 1.330687 -1.605854 Z M 5.78886 0.00170388 " transform="matrix(0.7071, 0.70709, 0.70709, -0.7071, 210.02268, 106.62671)"/>
<g fill="rgb(28.234863%, 28.625488%, 28.625488%)" fill-opacity="1">
<use xlink:href="#glyph-5-8" x="217.085" y="104.913"/>
</g>
<g fill="rgb(28.234863%, 28.625488%, 28.625488%)" fill-opacity="1">
<use xlink:href="#glyph-6-3" x="219.885" y="107.005"/>
</g>
<path fill="none" stroke-width="0.79701" stroke-linecap="butt" stroke-linejoin="miter" stroke="rgb(28.234863%, 28.625488%, 28.625488%)" stroke-opacity="1" stroke-miterlimit="10" d="M 185.670906 72.283906 L 176.002938 62.615938 " transform="matrix(1, 0, 0, -1, 31.833, 211.905)"/>
<path fill-rule="nonzero" fill="rgb(28.234863%, 28.625488%, 28.625488%)" fill-opacity="1" stroke-width="0.79701" stroke-linecap="butt" stroke-linejoin="miter" stroke="rgb(28.234863%, 28.625488%, 28.625488%)" stroke-opacity="1" stroke-miterlimit="10" d="M 5.789148 -0.000132862 L 1.328235 1.604726 L 2.805991 -0.000111767 L 1.328213 -1.604929 Z M 5.789148 -0.000132862 " transform="matrix(-0.70709, 0.7071, 0.7071, 0.70709, 209.67948, 147.44565)"/>
<g fill="rgb(28.234863%, 28.625488%, 28.625488%)" fill-opacity="1">
<use xlink:href="#glyph-5-8" x="218.22" y="147.744"/>
</g>
<g fill="rgb(28.234863%, 28.625488%, 28.625488%)" fill-opacity="1">
<use xlink:href="#glyph-6-4" x="221.019" y="149.836"/>
</g>
<path fill="none" stroke-width="0.79701" stroke-linecap="butt" stroke-linejoin="miter" stroke="rgb(28.234863%, 28.625488%, 28.625488%)" stroke-opacity="1" stroke-miterlimit="10" d="M 100.631844 157.326875 L 88.413094 145.104219 " transform="matrix(1, 0, 0, -1, 31.833, 211.905)"/>
<path fill-rule="nonzero" fill="rgb(28.234863%, 28.625488%, 28.625488%)" fill-opacity="1" stroke-width="0.79701" stroke-linecap="butt" stroke-linejoin="miter" stroke="rgb(28.234863%, 28.625488%, 28.625488%)" stroke-opacity="1" stroke-miterlimit="10" d="M 5.78872 0.00176425 L 1.327828 1.606581 L 2.805584 0.00176425 L 1.33059 -1.605814 Z M 5.78872 0.00176425 " transform="matrix(-0.7071, 0.7071, 0.7071, 0.7071, 122.08805, 64.95633)"/>
<g fill="rgb(28.234863%, 28.625488%, 28.625488%)" fill-opacity="1">
<use xlink:href="#glyph-5-8" x="110.251" y="61.571"/>
</g>
<g fill="rgb(28.234863%, 28.625488%, 28.625488%)" fill-opacity="1">
<use xlink:href="#glyph-6-2" x="113.051" y="63.663"/>
</g>
<path fill="none" stroke-width="0.79701" stroke-linecap="butt" stroke-linejoin="miter" stroke="rgb(28.234863%, 28.625488%, 28.625488%)" stroke-opacity="1" stroke-miterlimit="10" d="M 41.100594 72.283906 L 53.32325 60.065156 " transform="matrix(1, 0, 0, -1, 31.833, 211.905)"/>
<path fill-rule="nonzero" fill="rgb(28.234863%, 28.625488%, 28.625488%)" fill-opacity="1" stroke-width="0.79701" stroke-linecap="butt" stroke-linejoin="miter" stroke="rgb(28.234863%, 28.625488%, 28.625488%)" stroke-opacity="1" stroke-miterlimit="10" d="M 5.789396 0.000860027 L 1.328504 1.605676 L 2.806261 0.000860027 L 1.328504 -1.603956 Z M 5.789396 0.000860027 " transform="matrix(0.7071, 0.7071, 0.7071, -0.7071, 83.31196, 149.99677)"/>
<g fill="rgb(28.234863%, 28.625488%, 28.625488%)" fill-opacity="1">
<use xlink:href="#glyph-5-8" x="66.032" y="149.445"/>
</g>
<g fill="rgb(28.234863%, 28.625488%, 28.625488%)" fill-opacity="1">
<use xlink:href="#glyph-6-5" x="68.831" y="151.537"/>
</g>
<path fill="none" stroke-width="0.79701" stroke-linecap="butt" stroke-linejoin="miter" stroke="rgb(28.234863%, 28.625488%, 28.625488%)" stroke-opacity="1" stroke-miterlimit="10" d="M 126.143563 157.326875 L 138.362313 145.104219 " transform="matrix(1, 0, 0, -1, 31.833, 211.905)"/>
<path fill-rule="nonzero" fill="rgb(28.234863%, 28.625488%, 28.625488%)" fill-opacity="1" stroke-width="0.79701" stroke-linecap="butt" stroke-linejoin="miter" stroke="rgb(28.234863%, 28.625488%, 28.625488%)" stroke-opacity="1" stroke-miterlimit="10" d="M 5.789396 -0.00108807 L 1.328504 1.603728 L 2.806261 -0.00108807 L 1.328504 -1.605904 Z M 5.789396 -0.00108807 " transform="matrix(0.7071, 0.7071, 0.7071, -0.7071, 168.3524, 64.95633)"/>
<g fill="rgb(28.234863%, 28.625488%, 28.625488%)" fill-opacity="1">
<use xlink:href="#glyph-5-8" x="173.716" y="61.543"/>
</g>
<g fill="rgb(28.234863%, 28.625488%, 28.625488%)" fill-opacity="1">
<use xlink:href="#glyph-6-3" x="176.515" y="63.635"/>
</g>
<path fill="none" stroke-width="0.79701" stroke-linecap="butt" stroke-linejoin="miter" stroke="rgb(28.234863%, 28.625488%, 28.625488%)" stroke-opacity="1" stroke-miterlimit="10" d="M 140.600594 27.213594 L 131.784188 18.393281 " transform="matrix(1, 0, 0, -1, 31.833, 211.905)"/>
<path fill-rule="nonzero" fill="rgb(28.234863%, 28.625488%, 28.625488%)" fill-opacity="1" stroke-width="0.79701" stroke-linecap="butt" stroke-linejoin="miter" stroke="rgb(28.234863%, 28.625488%, 28.625488%)" stroke-opacity="1" stroke-miterlimit="10" d="M 5.790961 -0.000155565 L 1.327307 1.607423 L 2.807826 -0.000155565 L 1.327307 -1.607734 Z M 5.790961 -0.000155565 " transform="matrix(-0.7071, 0.7071, 0.7071, 0.7071, 165.45818, 191.66704)"/>
<g fill="rgb(28.234863%, 28.625488%, 28.625488%)" fill-opacity="1">
<use xlink:href="#glyph-5-8" x="177.401" y="197.066"/>
</g>
<g fill="rgb(28.234863%, 28.625488%, 28.625488%)" fill-opacity="1">
<use xlink:href="#glyph-6-4" x="180.2" y="199.159"/>
</g>
<path fill="none" stroke-width="0.79701" stroke-linecap="butt" stroke-linejoin="miter" stroke="rgb(28.234863%, 28.625488%, 28.625488%)" stroke-opacity="1" stroke-miterlimit="10" d="M 135.499031 85.041719 L 153.241219 85.041719 " transform="matrix(1, 0, 0, -1, 31.833, 211.905)"/>
<path fill-rule="nonzero" fill="rgb(28.234863%, 28.625488%, 28.625488%)" fill-opacity="1" stroke-width="0.79701" stroke-linecap="butt" stroke-linejoin="miter" stroke="rgb(28.234863%, 28.625488%, 28.625488%)" stroke-opacity="1" stroke-miterlimit="10" d="M 5.787526 0.00131875 L 1.326589 1.606787 L 2.807058 0.00131875 L 1.326589 -1.60415 Z M 5.787526 0.00131875 " transform="matrix(1, 0, 0, -1, 182.46638, 126.8646)"/>
<g fill="rgb(28.234863%, 28.625488%, 28.625488%)" fill-opacity="1">
<use xlink:href="#glyph-5-8" x="176.353" y="117.908"/>
</g>
</svg>
